HIERARCHY
ROOT Hips
{
    OFFSET 0.000000 0.000000 0.000000
    CHANNELS 6 Xposition Yposition Zposition Zrotation Yrotation Xrotation
    JOINT Chest
    {
        OFFSET 0.000000 1.634758 -0.000000
        CHANNELS 3 Zrotation Yrotation Xrotation
        JOINT Chest2
        {
            OFFSET 0.000000 2.197341 0.000000
            CHANNELS 3 Zrotation Yrotation Xrotation
            JOINT Neck
            {
                OFFSET 0.000000 0.961544 0.000000
                CHANNELS 3 Zrotation Yrotation Xrotation
                JOINT Head
                {
                    OFFSET 0.000000 0.632542 -0.032565
                    CHANNELS 3 Zrotation Yrotation Xrotation
                    End Site
                    {
                        OFFSET -0.000001 0.439502 2.922845
                    }
                }
            }
            JOINT LeftCollar
            {
                OFFSET 0.167536 0.778237 -0.168280
                CHANNELS 3 Zrotation Yrotation Xrotation
                JOINT LeftShoulder
                {
                    OFFSET 0.831514 -0.002900 0.006458
                    CHANNELS 3 Zrotation Yrotation Xrotation
                    JOINT LeftElbow
                    {
                        OFFSET 2.272872 -0.026639 0.059314
                        CHANNELS 3 Zrotation Yrotation Xrotation
                        JOINT LeftWrist
                        {
                            OFFSET 2.081982 -0.024402 0.054333
                            CHANNELS 3 Zrotation Yrotation Xrotation
                            JOINT LeftHandThumb1
                            {
                                OFFSET 0.218903 -0.128645 0.283837
                                CHANNELS 3 Zrotation Yrotation Xrotation
                                JOINT LeftHandThumb2
                                {
                                    OFFSET 0.137157 -0.025101 0.077902
                                    CHANNELS 3 Zrotation Yrotation Xrotation
                                    JOINT LeftHandThumb3
                                    {
                                        OFFSET 0.167137 -0.070131 0.026198
                                        CHANNELS 3 Zrotation Yrotation Xrotation
                                        End Site
                                        {
                                            OFFSET 0.245401 -0.048352 0.096315
                                        }
                                    }
                                }
                            }
                            JOINT LeftHandFore1
                            {
                                OFFSET 0.767340 -0.016076 0.196678
                                CHANNELS 3 Zrotation Yrotation Xrotation
                                JOINT LeftHandFore2
                                {
                                    OFFSET 0.209120 -0.055893 0.011830
                                    CHANNELS 3 Zrotation Yrotation Xrotation
                                    JOINT LeftHandFore3
                                    {
                                        OFFSET 0.124516 -0.034785 0.006988
                                        CHANNELS 3 Zrotation Yrotation Xrotation
                                        End Site
                                        {
                                            OFFSET 0.188190 -0.043757 0.006071
                                        }
                                    }
                                }
                            }
                            JOINT LeftHandMiddle1
                            {
                                OFFSET 0.709887 -0.008320 0.018526
                                CHANNELS 3 Zrotation Yrotation Xrotation
                                JOINT LeftHandMiddle2
                                {
                                    OFFSET 0.219754 -0.108168 0.008454
                                    CHANNELS 3 Zrotation Yrotation Xrotation
                                    JOINT LeftHandMiddle3
                                    {
                                        OFFSET 0.110381 -0.095738 0.005786
                                        CHANNELS 3 Zrotation Yrotation Xrotation
                                        End Site
                                        {
                                            OFFSET 0.189745 -0.139775 0.009488
                                        }
                                    }
                                }
                            }
                            JOINT LeftHandRing1
                            {
                                OFFSET 0.743817 -0.005823 -0.153668
                                CHANNELS 3 Zrotation Yrotation Xrotation
                                JOINT LeftHandRing2
                                {
                                    OFFSET 0.274584 -0.221611 0.015020
                                    CHANNELS 3 Zrotation Yrotation Xrotation
                                    JOINT LeftHandRing3
                                    {
                                        OFFSET 0.081311 -0.108826 0.012288
                                        CHANNELS 3 Zrotation Yrotation Xrotation
                                        End Site
                                        {
                                            OFFSET 0.075702 -0.092627 0.010457
                                        }
                                    }
                                }
                            }
                            JOINT LeftHandLittle1
                            {
                                OFFSET 0.689408 -0.053302 -0.308304
                                CHANNELS 3 Zrotation Yrotation Xrotation
                                JOINT LeftHandLittle2
                                {
                                    OFFSET 0.156348 -0.116599 -0.003736
                                    CHANNELS 3 Zrotation Yrotation Xrotation
                                    JOINT LeftHandLittle3
                                    {
                                        OFFSET 0.050421 -0.109329 0.001022
                                        CHANNELS 3 Zrotation Yrotation Xrotation
                                        End Site
                                        {
                                            OFFSET 0.119074 -0.148563 0.006236
                                        }
                                    }
                                }
                            }
                        }
                    }
                }
            }
            JOINT RightCollar
            {
                OFFSET -0.167536 0.778237 -0.168280
                CHANNELS 3 Zrotation Yrotation Xrotation
                JOINT RightShoulder
                {
                    OFFSET -0.831514 -0.002900 0.006457
                    CHANNELS 3 Zrotation Yrotation Xrotation
                    JOINT RightElbow
                    {
                        OFFSET -2.272872 -0.026639 0.059313
                        CHANNELS 3 Zrotation Yrotation Xrotation
                        JOINT RightWrist
                        {
                            OFFSET -2.081982 -0.024402 0.054331
                            CHANNELS 3 Zrotation Yrotation Xrotation
                            JOINT RightHandThumb1
                            {
                                OFFSET -0.218911 -0.128571 0.283837
                                CHANNELS 3 Zrotation Yrotation Xrotation
                                JOINT RightHandThumb2
                                {
                                    OFFSET -0.137157 -0.025101 0.077902
                                    CHANNELS 3 Zrotation Yrotation Xrotation
                                    JOINT RightHandThumb3
                                    {
                                        OFFSET -0.163124 -0.077275 0.030962
                                        CHANNELS 3 Zrotation Yrotation Xrotation
                                        End Site
                                        {
                                            OFFSET -0.229312 -0.077057 0.115389
                                        }
                                    }
                                }
                            }
                            JOINT RightHandFore1
                            {
                                OFFSET -0.767344 -0.015991 0.196679
                                CHANNELS 3 Zrotation Yrotation Xrotation
                                JOINT RightHandFore2
                                {
                                    OFFSET -0.209136 -0.055846 0.011830
                                    CHANNELS 3 Zrotation Yrotation Xrotation
                                    JOINT RightHandFore3
                                    {
                                        OFFSET -0.124512 -0.034753 0.007148
                                        CHANNELS 3 Zrotation Yrotation Xrotation
                                        End Site
                                        {
                                            OFFSET -0.187727 -0.043598 0.014983
                                        }
                                    }
                                }
                            }
                            JOINT RightHandMiddle1
                            {
                                OFFSET -0.709887 -0.008302 0.018525
                                CHANNELS 3 Zrotation Yrotation Xrotation
                                JOINT RightHandMiddle2
                                {
                                    OFFSET -0.219740 -0.108188 0.008455
                                    CHANNELS 3 Zrotation Yrotation Xrotation
                                    JOINT RightHandMiddle3
                                    {
                                        OFFSET -0.110447 -0.095776 0.003605
                                        CHANNELS 3 Zrotation Yrotation Xrotation
                                        End Site
                                        {
                                            OFFSET -0.189858 -0.139810 0.006118
                                        }
                                    }
                                }
                            }
                            JOINT RightHandRing1
                            {
                                OFFSET -0.743819 -0.005785 -0.153669
                                CHANNELS 3 Zrotation Yrotation Xrotation
                                JOINT RightHandRing2
                                {
                                    OFFSET -0.274600 -0.221591 0.015020
                                    CHANNELS 3 Zrotation Yrotation Xrotation
                                    JOINT RightHandRing3
                                    {
                                        OFFSET -0.081497 -0.109375 0.000580
                                        CHANNELS 3 Zrotation Yrotation Xrotation
                                        End Site
                                        {
                                            OFFSET -0.075858 -0.093087 0.000727
                                        }
                                    }
                                }
                            }
                            JOINT RightHandLittle1
                            {
                                OFFSET -0.689403 -0.053298 -0.308303
                                CHANNELS 3 Zrotation Yrotation Xrotation
                                JOINT RightHandLittle2
                                {
                                    OFFSET -0.156354 -0.116596 -0.003737
                                    CHANNELS 3 Zrotation Yrotation Xrotation
                                    JOINT RightHandLittle3
                                    {
                                        OFFSET -0.050537 -0.109237 0.003003
                                        CHANNELS 3 Zrotation Yrotation Xrotation
                                        End Site
                                        {
                                            OFFSET -0.118317 -0.149157 -0.006487
                                        }
                                    }
                                }
                            }
                        }
                    }
                }
            }
        }
    }
    JOINT LeftHip
    {
        OFFSET 0.685143 0.673822 -0.044491
        CHANNELS 3 Zrotation Yrotation Xrotation
        JOINT LeftKnee
        {
            OFFSET 0.085364 -3.750208 0.017676
            CHANNELS 3 Zrotation Yrotation Xrotation
            JOINT LeftAnkle
            {
                OFFSET 0.094583 -4.155206 0.019585
                CHANNELS 3 Zrotation Yrotation Xrotation
                JOINT LeftToe
                {
                    OFFSET -0.000000 -0.395925 0.621478
                    CHANNELS 3 Zrotation Yrotation Xrotation
                    End Site
                    {
                        OFFSET -0.000000 -0.077878 0.321152
                    }
                }
            }
        }
    }
    JOINT RightHip
    {
        OFFSET -0.685143 0.673822 -0.044492
        CHANNELS 3 Zrotation Yrotation Xrotation
        JOINT RightKnee
        {
            OFFSET -0.085364 -3.750208 0.017677
            CHANNELS 3 Zrotation Yrotation Xrotation
            JOINT RightAnkle
            {
                OFFSET -0.094583 -4.155206 0.019585
                CHANNELS 3 Zrotation Yrotation Xrotation
                JOINT RightToe
                {
                    OFFSET -0.000000 -0.395925 0.621478
                    CHANNELS 3 Zrotation Yrotation Xrotation
                    End Site
                    {
                        OFFSET -0.000000 -0.077878 0.321152
                    }
                }
            }
        }
    }
}
MOTION
Frames: 4
Frame Time: 0.033333
0.016190 8.534933 1.503686 -0.000015 0.000073 -0.000001 0.000008 0.000002 -3.571792 0.000008 -0.000001 -3.645270 0.000002 -0.000011 4.684106 0.000006 -0.000028 11.067140 -14.659968 2.343377 0.008184 -59.334667 7.449439 -1.666349 -0.000000 -0.000000 0.000000 -7.027406 0.318642 4.364457 0.000001 0.000004 0.000000 0.000003 0.000002 -0.000005 -0.000002 -0.000004 -0.000000 0.000003 -0.000000 -0.000000 -0.000000 0.000000 0.000000 0.000003 -0.000000 0.000000 0.000002 0.000000 -0.000000 0.000001 -0.000000 0.000000 0.000001 0.000000 0.000000 0.000000 0.000000 0.000000 -0.000000 -0.000001 -0.000001 -0.000000 -0.000000 0.000001 0.000003 0.000000 -0.000000 -0.000004 0.000000 -0.000000 -0.000004 -0.000000 -0.000000 5.717441 1.657636 -0.005788 17.096540 -36.432220 26.807264 -177.522415 68.290680 -178.326859 -67.659973 19.381596 -36.682648 -0.000003 0.000007 -0.000007 -0.000002 -0.000000 -0.000002 -0.000002 0.000002 0.000000 0.000000 -0.000002 0.000000 -0.000002 0.000002 0.000002 0.000002 -0.000003 -0.000002 -0.000003 0.000005 -0.000002 -0.000003 0.000002 0.000000 0.000002 0.000003 0.000000 0.000000 0.000002 0.000002 -0.000007 -0.000000 0.000000 0.000003 0.000002 -0.000003 -0.000002 0.000002 -0.000003 0.000002 -0.000003 0.000002 0.000002 -0.000000 0.000002 -1.420075 0.206413 7.405193 0.012346 0.179005 7.888959 0.917390 0.504735 -8.568102 -0.005219 -0.035418 -5.251468 3.217295 -0.298086 6.355421 -0.013432 -0.186724 8.231421 -1.800130 -1.423377 -0.576364 -0.012273 0.331496 -15.750109
0.016190 8.534917 1.503697 -0.000015 0.000073 -0.000001 0.000008 0.000002 -3.571038 0.000008 -0.000001 -3.644493 -0.000236 -0.000004 4.683495 0.000005 -0.000014 11.066005 -14.659970 2.343350 0.008187 -59.334824 7.449363 -1.664942 0.000000 -0.000000 0.000000 -7.028267 0.318520 4.364687 -0.000012 0.000004 0.000005 -0.000001 0.000001 -0.000003 -0.000001 -0.000003 0.000007 -0.000008 0.000001 0.000002 0.000000 0.000000 -0.000000 0.000001 -0.000000 0.000000 -0.000012 0.000002 0.000002 0.000003 0.000000 -0.000000 -0.000001 0.000000 0.000001 -0.000014 0.000001 0.000004 -0.000002 0.000000 -0.000001 0.000002 0.000000 0.000002 -0.000005 0.000001 0.000002 -0.000001 -0.000000 0.000000 0.000000 -0.000000 0.000000 5.717081 1.657591 -0.005785 17.094320 -36.432861 26.806147 -177.522430 68.290596 -178.326889 -67.663582 19.383043 -36.684395 0.000005 0.000002 -0.000005 -0.000002 -0.000007 0.000000 0.000002 -0.000000 0.000000 0.000005 -0.000000 -0.000003 -0.000002 0.000002 -0.000003 0.000002 -0.000003 -0.000002 0.000009 0.000002 0.000005 -0.000002 0.000002 0.000000 0.000003 -0.000000 0.000005 0.000010 0.000002 -0.000002 -0.000003 -0.000003 0.000002 -0.000005 -0.000003 0.000000 0.000012 -0.000000 -0.000009 -0.000002 0.000002 0.000002 0.000000 -0.000002 -0.000002 -1.420086 0.206386 7.405807 0.012340 0.178958 7.886894 0.917405 0.504788 -8.567659 -0.005219 -0.035419 -5.251795 3.217752 -0.298069 6.355472 -0.013433 -0.186726 8.231509 -1.800565 -1.423511 -0.577598 -0.012267 0.331473 -15.749192
0.016190 8.534868 1.503731 -0.000015 0.000073 -0.000001 0.000008 0.000002 -3.568786 0.000008 -0.000001 -3.642207 -0.000945 0.000018 4.681685 0.000003 0.000027 11.062633 -14.659980 2.343292 0.008187 -59.335308 7.449152 -1.660784 0.000000 0.000000 0.000000 -7.030820 0.318154 4.365372 -0.000008 0.000005 0.000016 0.000001 0.000001 -0.000007 -0.000004 -0.000002 0.000002 -0.000011 -0.000000 0.000001 0.000001 0.000001 0.000000 0.000000 -0.000001 0.000000 -0.000017 0.000001 0.000001 0.000007 -0.000000 0.000000 -0.000006 -0.000000 0.000000 -0.000017 0.000000 0.000003 0.000000 0.000000 -0.000001 0.000002 -0.000000 0.000001 -0.000004 -0.000001 0.000001 -0.000004 0.000000 0.000000 0.000000 -0.000000 -0.000000 5.715896 1.657464 -0.005785 17.087984 -36.434837 26.802711 -177.522430 68.290405 -178.326904 -67.674255 19.387297 -36.689575 0.000000 0.000005 -0.000015 -0.000002 -0.000003 0.000003 0.000003 0.000002 -0.000003 -0.000002 0.000005 -0.000007 -0.000002 -0.000000 0.000002 0.000005 -0.000002 -0.000002 0.000007 -0.000000 -0.000005 0.000000 -0.000002 -0.000003 0.000000 0.000005 -0.000010 0.000000 0.000009 -0.000007 -0.000005 -0.000002 -0.000005 0.000003 -0.000003 -0.000002 0.000014 0.000009 -0.000010 0.000000 0.000003 0.000000 0.000000 -0.000002 0.000002 -1.420117 0.206303 7.407099 0.012324 0.178843 7.881775 0.917443 0.504931 -8.566830 -0.005219 -0.035425 -5.252677 3.219121 -0.297988 6.355575 -0.013434 -0.186734 8.231856 -1.801859 -1.423940 -0.581284 -0.012250 0.331410 -15.746522
0.016190 8.534787 1.503788 -0.000015 0.000073 -0.000001 0.000008 0.000002 -3.565072 0.000008 -0.000001 -3.638435 -0.002115 0.000053 4.678690 -0.000001 0.000093 11.057085 -14.659945 2.343176 0.008182 -59.336155 7.448813 -1.653941 -0.000000 0.000000 0.000000 -7.035025 0.317548 4.366499 -0.000003 0.000006 0.000006 0.000001 0.000002 -0.000005 0.000000 -0.000006 0.000002 -0.000003 0.000001 0.000002 0.000002 0.000001 0.000000 -0.000000 -0.000000 0.000000 -0.000008 0.000002 0.000003 0.000002 -0.000000 0.000000 0.000000 0.000000 -0.000000 -0.000006 0.000001 0.000004 -0.000002 0.000001 -0.000001 0.000000 -0.000001 0.000001 -0.000006 0.000001 0.000003 -0.000004 0.000000 0.000000 -0.000000 0.000000 -0.000000 5.713997 1.657247 -0.005789 17.077412 -36.438061 26.797068 -177.522476 68.290047 -178.326904 -67.691750 19.394239 -36.698101 -0.000005 0.000012 -0.000015 0.000000 -0.000002 -0.000003 0.000003 -0.000005 -0.000003 -0.000010 0.000005 -0.000026 0.000003 -0.000005 -0.000003 0.000003 0.000003 -0.000003 -0.000007 0.000009 -0.000020 0.000002 -0.000002 -0.000003 0.000009 0.000002 0.000000 -0.000009 0.000007 -0.000027 -0.000007 -0.000002 -0.000002 0.000000 0.000002 0.000000 0.000002 0.000007 -0.000027 0.000002 -0.000003 0.000002 0.000000 -0.000005 0.000003 -1.420174 0.206152 7.409558 0.012296 0.178638 7.872696 0.917508 0.505193 -8.565142 -0.005220 -0.035435 -5.254232 3.221380 -0.297899 6.355772 -0.013435 -0.186745 8.232369 -1.804003 -1.424606 -0.587342 -0.012220 0.331305 -15.742202
